<svg xmlns="http://www.w3.org/2000/svg" width="1000" height="600"><path fill="#f9f9f9" stroke="#000" stroke-width="2" d="M10 10h980v580H10z"/><path fill="#8B4513" d="M10 270h30v80H10z"/><text x="1" y="318" fill="#fff" font-size="16" transform="rotate(-90 12 305)">Door</text><path fill="#cce5ff" stroke="#000" d="M850 230h120v150H850z"/><text x="875" y="270" font-size="12">Nursing Station</text><circle cx="880" cy="320" r="20" fill="#ccc"/><text x="865" y="325" font-size="10">Nurse 1</text><circle cx="940" cy="320" r="20" fill="#ccc"/><text x="925" y="325" font-size="10">Nurse 2</text><path stroke="#000" stroke-dasharray="4" d="M40 145h920M40 455h920"/><path fill="#e0f7fa" stroke="#000" d="M60 30h50v100H60z"/><rect width="40" height="15" x="65" y="40" fill="#fff8e1" rx="3"/><text x="65" y="25" font-size="12">Bed 1</text><path fill="#e0f7fa" stroke="#000" d="M200 30h50v100h-50z"/><rect width="40" height="15" x="205" y="40" fill="#fff8e1" rx="3"/><text x="205" y="25" font-size="12">Bed 2</text><path fill="#e0f7fa" stroke="#000" d="M340 30h50v100h-50z"/><rect width="40" height="15" x="345" y="40" fill="#fff8e1" rx="3"/><text x="345" y="25" font-size="12">Bed 3</text><path fill="#e0f7fa" stroke="#000" d="M480 30h50v100h-50z"/><rect width="40" height="15" x="485" y="40" fill="#fff8e1" rx="3"/><text x="485" y="25" font-size="12">Bed 4</text><path fill="#e0f7fa" stroke="#000" d="M620 30h50v100h-50z"/><rect width="40" height="15" x="625" y="40" fill="#fff8e1" rx="3"/><text x="625" y="25" font-size="12">Bed 5</text><path fill="#e0f7fa" stroke="#000" d="M760 30h50v100h-50z"/><rect width="40" height="15" x="765" y="40" fill="#fff8e1" rx="3"/><text x="765" y="25" font-size="12">Bed 6</text><path stroke="#000" stroke-dasharray="4" d="M150 30v115M290 30v115M430 30v115M570 30v115M710 30v115"/><path fill="#e0f7fa" stroke="#000" d="M60 470h50v100H60z"/><rect width="40" height="15" x="65" y="550" fill="#fff8e1" rx="3"/><text x="65" y="585" font-size="12">Bed 7</text><path fill="#e0f7fa" stroke="#000" d="M200 470h50v100h-50z"/><rect width="40" height="15" x="205" y="550" fill="#fff8e1" rx="3"/><text x="205" y="585" font-size="12">Bed 8</text><path fill="#e0f7fa" stroke="#000" d="M340 470h50v100h-50z"/><rect width="40" height="15" x="345" y="550" fill="#fff8e1" rx="3"/><text x="345" y="585" font-size="12">Bed 9</text><path fill="#e0f7fa" stroke="#000" d="M480 470h50v100h-50z"/><rect width="40" height="15" x="485" y="550" fill="#fff8e1" rx="3"/><text x="485" y="585" font-size="12">Bed 10</text><path fill="#e0f7fa" stroke="#000" d="M620 470h50v100h-50z"/><rect width="40" height="15" x="625" y="550" fill="#fff8e1" rx="3"/><text x="625" y="585" font-size="12">Bed 11</text><path fill="#e0f7fa" stroke="#000" d="M760 470h50v100h-50z"/><rect width="40" height="15" x="765" y="550" fill="#fff8e1" rx="3"/><text x="765" y="590" font-size="12">Bed 12</text><path stroke="#000" stroke-dasharray="4" d="M150 455v115M290 455v115M430 455v115M570 455v115M710 455v115"/></svg>