<svg xmlns="http://www.w3.org/2000/svg" width="1000" height="600" viewBox="0 0 1000 600">
<rect x="10" y="10" width="980" height="580" fill="#EFF5F1" stroke="none"/>
  <!-- Door -->
  <rect x="10" y="270" width="30" height="80" fill="#8B4513"/>
  <text x="1" y="318" font-size="16" fill="white" transform="rotate(-90 12,305)">Door</text>

  <line x1="40" y1="145" x2="960" y2="145" stroke="black" stroke-dasharray="4"/>
  <line x1="40" y1="455" x2="960" y2="455" stroke="black" stroke-dasharray="4"/>

  <g>
    <rect x="60" y="30" width="50" height="100" fill="#e0f7fa" rx="5" ry="5" stroke="black" id="APOLLOORG1H1B1"/>
    <rect x="82" y="48" width="40" height="20" fill="#A9A9A9" rx="3"/>
    <text x="93" y="63" font-size="12" fill="black">B1</text>
  </g>
  <g>
    <rect x="200" y="30" width="50" height="100" fill="#e0f7fa" rx="5" ry="5" stroke="black" id="APOLLOORG1H1B2"/>
    <rect x="216" y="48" width="40" height="20" fill="#A9A9A9" rx="3"/>
    <text x="225" y="62" font-size="12" fill="black">B2</text>
  </g>
  <g>
    <rect x="340" y="30" width="50" height="100" fill="#e0f7fa" rx="5" ry="5" stroke="black" id="APOLLOORG1H1B3"/>
    <rect x="356" y="48" width="40" height="20" fill="#A9A9A9" rx="3"/>
    <text x="365" y="62" font-size="12" fill="black">B3</text>
  </g>
  <g>
    <rect x="480" y="30" width="50" height="100" fill="#e0f7fa" rx="5" ry="5" stroke="black" id="APOLLOORG1H1B4"/>
    <rect x="496" y="48" width="40" height="20" fill="#A9A9A9" rx="3"/>
    <text x="505" y="62" font-size="12" fill="black">B4</text>
  </g>
  <g>
    <rect x="620" y="30" width="50" height="100" fill="#e0f7fa" rx="5" ry="5" stroke="black" id="APOLLOORG1H1B5"/>
    <rect x="636" y="48" width="40" height="20" fill="#A9A9A9" rx="3"/>
    <text x="645" y="62" font-size="12" fill="black">B5</text>
  </g>
  <g>
    <rect x="760" y="30" width="50" height="100" fill="#e0f7fa" rx="5" ry="5" stroke="black" id="APOLLOORG1H1B6"/>
    <rect x="776" y="48" width="40" height="20" fill="#A9A9A9" rx="3"/>
    <text x="785" y="62" font-size="12" fill="black">B6</text>
  </g>

  <line x1="150" y1="30" x2="150" y2="145" stroke="black" stroke-dasharray="4"/>
  <line x1="290" y1="30" x2="290" y2="145" stroke="black" stroke-dasharray="4"/>
  <line x1="430" y1="30" x2="430" y2="145" stroke="black" stroke-dasharray="4"/>
  <line x1="570" y1="30" x2="570" y2="145" stroke="black" stroke-dasharray="4"/>
  <line x1="710" y1="30" x2="710" y2="145" stroke="black" stroke-dasharray="4"/>

  <g>
    <rect x="60" y="470" width="50" height="100" fill="#e0f7fa" rx="5" ry="5" stroke="black" id="APOLLOORG1H1B7"/>
    <rect x="80" y="490" width="40" height="20" fill="#A9A9A9" rx="3"/>
    <text x="90" y="505" font-size="12" fill="black">B7</text>
  </g>
  <g>
    <rect x="200" y="470" width="50" height="100" fill="#e0f7fa" rx="5" ry="5" stroke="black" id="APOLLOORG1H1B8"/>
    <rect x="220" y="490" width="40" height="20" fill="#A9A9A9" rx="3"/>
    <text x="230" y="505" font-size="12" fill="black">B8</text>
  </g>
  <g>
    <rect x="340" y="470" width="50" height="100" fill="#e0f7fa" rx="5" ry="5" stroke="black" id="APOLLOORG1H1B9"/>
    <rect x="360" y="490" width="40" height="20" fill="#A9A9A9" rx="3"/>
    <text x="370" y="505" font-size="12" fill="black">B9</text>
  </g>
  <g>
    <rect x="480" y="470" width="50" height="100" fill="#e0f7fa" rx="5" ry="5" stroke="black" id="APOLLOORG1H1B10"/>
    <rect x="500" y="490" width="40" height="20" fill="#A9A9A9" rx="3"/>
    <text x="510" y="505" font-size="12" fill="black">B10</text>
  </g>
  <g>
    <rect x="620" y="470" width="50" height="100" fill="#e0f7fa" rx="5" ry="5" stroke="black" id="APOLLOORG1H1B11"/>
    <rect x="640" y="490" width="40" height="20" fill="#A9A9A9" rx="3"/>
    <text x="650" y="505" font-size="12" fill="black">B11</text>
  </g>
  <g>
    <rect x="760" y="470" width="50" height="100" fill="#e0f7fa" rx="5" ry="5" stroke="black" id="APOLLOORG1H1B12"/>
    <rect x="780" y="490" width="40" height="20" fill="#A9A9A9" rx="3"/>
    <text x="790" y="505" font-size="12" fill="black">B12</text>
  </g>

  <line x1="150" y1="455" x2="150" y2="570" stroke="black" stroke-dasharray="4"/>
  <line x1="290" y1="455" x2="290" y2="570" stroke="black" stroke-dasharray="4"/>
  <line x1="430" y1="455" x2="430" y2="570" stroke="black" stroke-dasharray="4"/>
  <line x1="570" y1="455" x2="570" y2="570" stroke="black" stroke-dasharray="4"/>
  <line x1="710" y1="455" x2="710" y2="570" stroke="black" stroke-dasharray="4"/>
  
  <!-- INSERTED: Stylized N. STN structure -->
<g transform="translate(300,260)">
  <!-- Arc (left side) -->
  <path d="M 0 50 A 50 50 0 0 1 50 0 L 50 20 A 30 30 0 0 0 20 50 Z" fill="none" stroke="black" stroke-width="2"/>
  

  <!-- Text in center -->
  <te  <rect x="50" y="0" width="300" height="20" rx="10" ry="10" fill="none" stroke="black" stroke-width="2"/>xt x="200" y="15" font-size="14" text-anchor="middle" fill="black">N. STN</text>

  <!-- Small circles under the line -->
  <circle cx="70" cy="40" r="6" stroke="black" fill="none"/>
  <circle cx="110" cy="40" r="6" stroke="black" fill="none"/>
  <circle cx="150" cy="40" r="6" stroke="black" fill="none"/>
  <circle cx="190" cy="40" r="6" stroke="black" fill="none"/>
  <circle cx="230" cy="40" r="6" stroke="black" fill="none"/>
  <circle cx="270" cy="40" r="6" stroke="black" fill="none"/>
</g>
<!-- END INSERTED -->

</svg>
